<svg width="32" height="32" viewBox="0 0 32 32" fill="none" xmlns="http://www.w3.org/2000/svg">
<path d="M1.85107 7.5532C1.85107 6.0409 2.45183 4.59055 3.52119 3.52119C4.59055 2.45183 6.0409 1.85107 7.5532 1.85107H24.6596C26.1719 1.85107 27.6222 2.45183 28.6916 3.52119C29.761 4.59055 30.3617 6.0409 30.3617 7.5532V24.6596C30.3617 26.1719 29.761 27.6222 28.6916 28.6916C27.6222 29.761 26.1719 30.3617 24.6596 30.3617H7.5532C6.0409 30.3617 4.59055 29.761 3.52119 28.6916C2.45183 27.6222 1.85107 26.1719 1.85107 24.6596V7.5532Z" stroke="#7879F1" stroke-width="2" stroke-linecap="round" stroke-linejoin="round"/>
<path d="M11.117 14.6809C13.0853 14.6809 14.6809 13.0853 14.6809 11.1171C14.6809 9.1488 13.0853 7.55322 11.117 7.55322C9.14877 7.55322 7.55319 9.1488 7.55319 11.1171C7.55319 13.0853 9.14877 14.6809 11.117 14.6809Z" stroke="#7879F1" stroke-width="2" stroke-linecap="round" stroke-linejoin="round"/>
<path d="M19.7073 16.9916L7.55319 30.3617H24.8492C26.3112 30.3617 27.7133 29.7809 28.7471 28.7471C29.7809 27.7133 30.3617 26.3111 30.3617 24.8491V24.6595C30.3617 23.9952 30.1122 23.7401 29.6632 23.2483L23.9183 16.983C23.6505 16.691 23.3249 16.4579 22.962 16.2988C22.5992 16.1396 22.2071 16.0578 21.8109 16.0586C21.4147 16.0594 21.023 16.1428 20.6608 16.3034C20.2986 16.4641 19.9738 16.6984 19.7073 16.9916V16.9916Z" stroke="#7879F1" stroke-width="2" stroke-linecap="round" stroke-linejoin="round"/>
</svg>
